<svg viewBox="0 0 720 480" width="100%" height="480" xmlns="http://www.w3.org/2000/svg">
  <rect width="720" height="480" fill="#fbf6ea"/>

  <!-- Mediterranean Sea (backdrop; landmasses drawn on top) -->
  <path d="M20,180 C120,150 220,170 320,155 C420,140 520,160 620,150 C660,145 690,160 700,180 C710,220 690,260 680,300 C650,340 600,360 540,355 C460,350 400,370 320,360 C240,352 160,365 90,340 C50,320 30,280 25,240 C20,220 18,200 20,180 Z"
        fill="#dce8ec" stroke="#2c5f7c" stroke-width="2.5"/>
  <text x="300" y="322" font-family="Georgia, serif" font-style="italic" font-size="22" fill="#2c5f7c">Mediterranean Sea</text>
  <text x="292" y="128" font-family="Georgia, serif" font-style="italic" font-size="17" fill="#2c5f7c">Aegean Sea</text>

  <!-- Italy -->
  <path d="M40,90 C70,80 100,95 105,130 C110,170 90,210 95,250 C98,270 80,280 60,270 C40,255 30,220 35,180 C38,150 30,110 40,90 Z"
        fill="#f1e9d8" stroke="#1c1a17" stroke-width="3"/>
  <text x="35" y="238" font-family="Georgia, serif" font-weight="700" font-size="23" fill="#1c1a17">ITALY</text>

  <!-- Malta -->
  <path d="M100,290 C112,285 122,292 120,302 C118,312 105,315 98,308 C93,300 95,293 100,290 Z"
        fill="#f1e9d8" stroke="#1c1a17" stroke-width="3"/>

  <!-- Macedonia -->
  <path d="M150,55 C210,40 280,50 310,80 C325,100 315,125 290,135 C250,148 190,140 155,120 C135,105 135,75 150,55 Z"
        fill="#f1e9d8" stroke="#1c1a17" stroke-width="3"/>
  <text x="168" y="98" font-family="Georgia, serif" font-weight="700" font-size="23" fill="#1c1a17">MACEDONIA</text>

  <!-- Achaia -->
  <path d="M140,150 C190,135 260,140 295,165 C315,185 305,215 275,230 C230,248 175,240 150,215 C132,195 130,170 140,150 Z"
        fill="#f1e9d8" stroke="#1c1a17" stroke-width="3"/>
  <text x="205" y="160" font-family="Georgia, serif" font-weight="700" font-size="23" fill="#1c1a17">ACHAIA</text>

  <!-- Asia Minor -->
  <path d="M330,60 C400,40 480,45 540,75 C575,95 585,135 570,175 C555,215 500,235 440,230 C380,225 335,200 320,160 C310,120 315,85 330,60 Z"
        fill="#f1e9d8" stroke="#1c1a17" stroke-width="3"/>
  <text x="380" y="88" font-family="Georgia, serif" font-weight="700" font-size="25" fill="#1c1a17">ASIA MINOR</text>

  <!-- Cyprus -->
  <path d="M480,245 C505,238 528,248 530,265 C532,282 512,292 492,288 C475,283 470,265 480,245 Z"
        fill="#f1e9d8" stroke="#1c1a17" stroke-width="3"/>

  <!-- Syria / Judea (Levant coast) -->
  <path d="M580,90 C620,80 660,95 670,130 C680,180 660,230 670,280 C680,330 665,380 640,410 C615,430 585,420 575,390 C565,340 580,290 570,240 C562,190 570,130 580,90 Z"
        fill="#f1e9d8" stroke="#1c1a17" stroke-width="3"/>
  <text x="592" y="100" font-family="Georgia, serif" font-weight="700" font-size="22" fill="#1c1a17">SYRIA</text>
  <text x="586" y="362" font-family="Georgia, serif" font-weight="700" font-size="22" fill="#1c1a17">JUDEA</text>

  <!-- Route: Jerusalem -> Antioch -> Cyprus -> Galatia -> Philippi -> Athens -> Corinth -> Ephesus -> Malta -> Rome -->
  <path d="M630,390 C625,320 618,230 615,150 C600,205 550,235 505,262 C480,220 465,185 450,155 C380,125 300,100 232,85 C222,130 212,180 205,232 C195,222 180,205 165,190 C245,195 315,196 357,197 C300,240 205,270 108,298 C97,260 80,210 68,165"
        fill="none" stroke="#c97a12" stroke-width="4" stroke-dasharray="2,10" stroke-linecap="round"/>
  <path d="M82,180 L68,162 L88,175 Z" fill="#c97a12" stroke="#1c1a17" stroke-width="1.5"/>

  <!-- 1 Jerusalem -->
  <circle cx="630" cy="390" r="9" fill="#c97a12" stroke="#1c1a17" stroke-width="2.5"/>
  <text x="630" y="394" text-anchor="middle" font-family="Georgia, serif" font-weight="700" font-size="17" fill="#fbf6ea">1</text>
  <text x="598" y="410" font-family="Georgia, serif" font-weight="700" font-size="20" fill="#1c1a17">Jerusalem</text>

  <!-- 2 Antioch -->
  <circle cx="610" cy="145" r="9" fill="#c97a12" stroke="#1c1a17" stroke-width="2.5"/>
  <text x="610" y="149" text-anchor="middle" font-family="Georgia, serif" font-weight="700" font-size="17" fill="#fbf6ea">2</text>
  <text x="573" y="163" font-family="Georgia, serif" font-weight="700" font-size="20" fill="#1c1a17">Antioch</text>

  <!-- 3 Cyprus -->
  <circle cx="505" cy="262" r="9" fill="#c97a12" stroke="#1c1a17" stroke-width="2.5"/>
  <text x="505" y="266" text-anchor="middle" font-family="Georgia, serif" font-weight="700" font-size="17" fill="#fbf6ea">3</text>
  <text x="513" y="256" font-family="Georgia, serif" font-weight="700" font-size="20" fill="#1c1a17">Cyprus</text>

  <!-- 4 Galatia: Iconium/Lystra -->
  <circle cx="450" cy="155" r="9" fill="#c97a12" stroke="#1c1a17" stroke-width="2.5"/>
  <text x="450" y="159" text-anchor="middle" font-family="Georgia, serif" font-weight="700" font-size="17" fill="#fbf6ea">4</text>
  <text x="388" y="142" font-family="Georgia, serif" font-weight="700" font-size="20" fill="#1c1a17">Iconium &amp; Lystra</text>

  <!-- 5 Philippi -->
  <circle cx="232" cy="85" r="9" fill="#c97a12" stroke="#1c1a17" stroke-width="2.5"/>
  <text x="232" y="89" text-anchor="middle" font-family="Georgia, serif" font-weight="700" font-size="17" fill="#fbf6ea">5</text>
  <text x="258" y="65" font-family="Georgia, serif" font-weight="700" font-size="20" fill="#1c1a17">Philippi</text>

  <!-- 6 Athens -->
  <circle cx="205" cy="232" r="9" fill="#c97a12" stroke="#1c1a17" stroke-width="2.5"/>
  <text x="205" y="236" text-anchor="middle" font-family="Georgia, serif" font-weight="700" font-size="17" fill="#fbf6ea">6</text>
  <text x="212" y="252" font-family="Georgia, serif" font-weight="700" font-size="20" fill="#1c1a17">Athens</text>

  <!-- 7 Corinth -->
  <circle cx="165" cy="190" r="9" fill="#c97a12" stroke="#1c1a17" stroke-width="2.5"/>
  <text x="165" y="194" text-anchor="middle" font-family="Georgia, serif" font-weight="700" font-size="17" fill="#fbf6ea">7</text>
  <text x="93" y="186" font-family="Georgia, serif" font-weight="700" font-size="20" fill="#1c1a17">Corinth</text>

  <!-- 8 Ephesus -->
  <circle cx="357" cy="197" r="9" fill="#c97a12" stroke="#1c1a17" stroke-width="2.5"/>
  <text x="357" y="201" text-anchor="middle" font-family="Georgia, serif" font-weight="700" font-size="17" fill="#fbf6ea">8</text>
  <text x="367" y="192" font-family="Georgia, serif" font-weight="700" font-size="20" fill="#1c1a17">Ephesus</text>

  <!-- 9 Malta: shipwreck -->
  <circle cx="108" cy="298" r="9" fill="#c97a12" stroke="#1c1a17" stroke-width="2.5"/>
  <text x="108" y="302" text-anchor="middle" font-family="Georgia, serif" font-weight="700" font-size="17" fill="#fbf6ea">9</text>
  <text x="46" y="284" font-family="Georgia, serif" font-weight="700" font-size="20" fill="#1c1a17">Malta (shipwreck)</text>

  <!-- 10 Rome -->
  <circle cx="68" cy="165" r="9" fill="#c97a12" stroke="#1c1a17" stroke-width="2.5"/>
  <text x="68" y="169" text-anchor="middle" font-family="Georgia, serif" font-weight="700" font-size="17" fill="#fbf6ea">10</text>
  <text x="24" y="150" font-family="Georgia, serif" font-weight="700" font-size="22" fill="#1c1a17">Rome</text>

  <!-- compass -->
  <g transform="translate(670,45)">
    <circle r="26" fill="#fbf6ea" stroke="#1c1a17" stroke-width="2.5"/>
    <path d="M0,-18 L6,0 L0,18 L-6,0 Z" fill="#1c1a17"/>
    <text y="-30" font-family="Georgia, serif" font-weight="700" font-size="20" fill="#1c1a17" text-anchor="middle">N</text>
  </g>

  <!-- border frame -->
  <rect x="2" y="2" width="716" height="476" fill="none" stroke="#1c1a17" stroke-width="2"/>
</svg>
